<?xml version="1.0"?>
<svg width="640" height="480" xmlns="http://www.w3.org/2000/svg" xmlns:svg="http://www.w3.org/2000/svg">
 <!-- Created with SVG-edit - https://github.com/SVG-Edit/svgedit-->

 <g class="layer">
  <title>Layer 1</title>
  <path d="m200.217103,415.184584l0,-366.457364l0,0c0,-15.568383 5.711793,-28.189028 12.757629,-28.189028l153.091554,0c7.04585,0 12.757629,12.620645 12.757629,28.189028c0,15.568353 -5.711779,28.189028 -12.757629,28.189028l-12.757629,0l0,366.457364c0,15.568383 -5.711786,28.189028 -12.757629,28.189028l-153.091554,0l0,0c-7.04585,0 -12.757629,-12.620645 -12.757629,-28.189028c0,-15.568383 5.711779,-28.189028 12.757629,-28.189028l12.757629,0zm25.515259,-394.646393l0,0c7.045837,0 12.757629,12.620645 12.757629,28.189028c0,15.568353 -5.711793,28.189028 -12.757629,28.189028c-3.522915,0 -6.378815,-6.310345 -6.378815,-14.094514c0,-7.784184 2.8559,-14.094514 6.378815,-14.094514l12.757629,0m127.576295,28.189028l-140.333924,0m-25.515259,338.268336l0,0c3.522915,0 6.378815,6.310345 6.378815,14.094514c0,7.784169 -2.8559,14.094514 -6.378815,14.094514l12.757629,0m-12.757629,28.189028l0,0c7.045837,0 12.757629,-12.620645 12.757629,-28.189028l0,-28.189028" fill="#00ff7f" id="svg_1" stroke="#000000" stroke-dasharray="null" stroke-linecap="null" stroke-linejoin="null" stroke-width="5" transform="rotate(-90.4325 276.763 246.05)"/>
  <line fill="none" id="svg_17" stroke="#00007f" stroke-width="5" transform="rotate(-25 153.476 206.778)" x1="109.975517" x2="196.975517" y1="206.777756" y2="206.777756"/>
  <line fill="none" id="svg_16" stroke="#00007f" stroke-width="5" transform="rotate(-15 163.476 239.278)" x1="163.975517" x2="162.975517" y1="204.777756" y2="273.777756"/>
  <path d="m131.975517,257.777756c1,-0.458328 1,0.5 1,1.399994c0,0.900009 0.180542,1.900665 -0.283997,2.515991c-0.515785,0.683228 -0.716003,1.384003 -0.716003,2.284027c0,0.899994 0,1.799988 0,2.557159c0,0.895508 0,1.75882 0,2.721985c0,0.920837 0,1.820831 0,2.720856c0,0.899994 0,1.799988 0,2.599976c0,0.900024 0,1.800018 0,2.700012c0,0.899994 0,1.799988 0,2.700012c0,0.899994 0,1.799988 0,2.599976c0,0.900024 0,1.800018 0,2.700012c0,0.899994 0,1.799988 0,2.700012c0,0.899994 0,1.799988 0,2.599976c0,0.900024 -0.005333,1.800049 0,2.700012c0.005333,0.900055 0.288231,1.701447 0.761665,2.314331c0.561523,0.726898 1.056335,1.441528 1.58567,2.180328c0.622437,0.868713 1.235062,1.433258 1.531334,2.326508c0.261467,0.78833 0.528183,1.637054 1.12133,2.178833c0.628464,0.574036 1.207596,1.245178 2,1.666656c0.640602,0.340729 1.477943,0.660858 2.300003,1.190521c0.798912,0.51474 1.115105,1.317383 2,1.585663c0.863022,0.261627 1.799995,0.057159 2.699997,0.057159c0.800003,0 1.428932,0.370697 2.221497,0.87851c0.746742,0.478455 1.778503,0.12149 2.578506,0.12149c0.899994,0 1.799995,0 2.699997,0c0.900002,0 1.800003,0 2.699997,0c0.900002,0 1.800003,0 2.600006,0c0.899994,0 1.819191,0.165192 2.699997,-0.020844c0.847389,-0.178986 1.728569,-0.65152 2.37867,-1.2005c0.664307,-0.560974 1.273216,-1.138885 1.921333,-1.494659c0.795593,-0.436737 1.556732,-0.896271 2.115997,-1.569336c0.556015,-0.669159 0.524506,-1.538849 1.109329,-2.278656c0.536148,-0.678223 0.581726,-1.367767 1.060005,-2.150665c0.490707,-0.803253 0.658401,-1.510254 1.136002,-2.164001c0.510712,-0.699066 0.682297,-1.344604 0.945328,-2.287994c0.190056,-0.681671 0.731003,-1.656219 0.82267,-2.422668c0.108215,-0.904785 0.553864,-1.613953 0.889168,-2.510681c0.318077,-0.850647 0.121498,-1.699982 0.121498,-2.600006c0,-0.899994 0,-1.799988 0,-2.699982c0,-0.899994 0,-1.800018 0,-2.700012c0,-0.899994 0,-1.699982 0,-2.600006c0,-0.899994 0,-1.799988 0,-2.699982l0,-0.899994l0,-0.900024l0,-0.899994" fill="none" id="svg_15" stroke="#00007f" stroke-dasharray="null" stroke-linecap="null" stroke-linejoin="null" stroke-width="5" transform="rotate(-15 153.004 282.783)"/>
  <line fill="none" id="svg_14" stroke="#00007f" stroke-width="5" transform="rotate(30 248.477 208.214)" x1="204.976707" x2="291.976707" y1="208.213768" y2="208.213768"/>
  <line fill="none" id="svg_13" stroke="#00007f" stroke-width="5" transform="rotate(5 243.477 240.714)" x1="243.976707" x2="242.976707" y1="206.213768" y2="275.213768"/>
  <path d="m196.976707,254.213768c1,-0.458328 1,0.5 1,1.399994c0,0.900009 0.180542,1.900665 -0.283997,2.515991c-0.515785,0.683228 -0.716003,1.384003 -0.716003,2.284027c0,0.899994 0,1.799988 0,2.557159c0,0.895508 0,1.75882 0,2.721985c0,0.920837 0,1.820831 0,2.720856c0,0.899994 0,1.799988 0,2.599976c0,0.900024 0,1.800018 0,2.700012c0,0.899994 0,1.799988 0,2.700012c0,0.899994 0,1.799988 0,2.599976c0,0.900024 0,1.800018 0,2.700012c0,0.899994 0,1.799988 0,2.700012c0,0.899994 0,1.799988 0,2.599976c0,0.900024 -0.005333,1.800049 0,2.700012c0.005333,0.900055 0.288231,1.701447 0.761665,2.314331c0.561523,0.726898 1.056335,1.441528 1.58567,2.180328c0.622437,0.868713 1.235062,1.433258 1.531334,2.326508c0.261467,0.78833 0.528183,1.637054 1.12133,2.178833c0.628464,0.574036 1.207596,1.245178 2,1.666656c0.640602,0.340729 1.477943,0.660858 2.300003,1.190521c0.798912,0.51474 1.115105,1.317383 2,1.585663c0.863022,0.261627 1.799995,0.057159 2.699997,0.057159c0.800003,0 1.428932,0.370697 2.221497,0.87851c0.746742,0.478455 1.778503,0.12149 2.578506,0.12149c0.899994,0 1.799995,0 2.699997,0c0.900002,0 1.800003,0 2.699997,0c0.900002,0 1.800003,0 2.600006,0c0.899994,0 1.819191,0.165192 2.699997,-0.020844c0.847389,-0.178986 1.728569,-0.65152 2.37867,-1.2005c0.664307,-0.560974 1.273216,-1.138885 1.921333,-1.494659c0.795593,-0.436737 1.556732,-0.896271 2.115997,-1.569336c0.556015,-0.669159 0.524506,-1.538849 1.109329,-2.278656c0.536148,-0.678223 0.581726,-1.367767 1.060005,-2.150665c0.490707,-0.803253 0.658401,-1.510254 1.136002,-2.164001c0.510712,-0.699066 0.682297,-1.344604 0.945328,-2.287994c0.190056,-0.681671 0.731003,-1.656219 0.82267,-2.422668c0.108215,-0.904785 0.553864,-1.613953 0.889168,-2.510681c0.318077,-0.850647 0.121498,-1.699982 0.121498,-2.600006c0,-0.899994 0,-1.799988 0,-2.699982c0,-0.899994 0,-1.800018 0,-2.700012c0,-0.899994 0,-1.699982 0,-2.600006c0,-0.899994 0,-1.799988 0,-2.699982l0,-0.899994l0,-0.900024l0,-0.899994" fill="none" id="svg_12" stroke="#00007f" stroke-dasharray="null" stroke-linecap="null" stroke-linejoin="null" stroke-width="5" transform="rotate(10 218.006 279.219)"/>
  <ellipse cx="184.975517" cy="293.777756" fill="none" id="svg_11" rx="1" ry="3" stroke="#000000" stroke-dasharray="null" stroke-linecap="null" stroke-linejoin="null" stroke-width="5"/>
  <ellipse cx="325.975517" cy="254.777756" fill="none" id="svg_10" rx="3" ry="0" stroke="#000000" stroke-dasharray="null" stroke-linecap="null" stroke-linejoin="null" stroke-width="5"/>
  <line fill="none" id="svg_9" stroke="#00007f" stroke-dasharray="null" stroke-linecap="null" stroke-linejoin="null" stroke-width="5" transform="rotate(5 289.475 252.778)" x1="289.975517" x2="288.975517" y1="200.777756" y2="304.777756"/>
  <line fill="none" id="svg_8" stroke="#00007f" stroke-dasharray="null" stroke-linecap="null" stroke-linejoin="null" stroke-width="5" x1="292.975517" x2="345.975517" y1="201.777756" y2="258.777756"/>
  <line fill="none" id="svg_7" stroke="#00007f" stroke-dasharray="null" stroke-linecap="null" stroke-linejoin="null" stroke-width="5" transform="rotate(-95 371.975 227.778)" x1="345.475517" x2="398.475517" y1="199.277756" y2="256.277756"/>
  <line fill="none" id="svg_6" stroke="#00007f" stroke-dasharray="null" stroke-linecap="null" stroke-linejoin="null" stroke-width="5" transform="rotate(5 392.975 249.778)" x1="393.475517" x2="392.475517" y1="197.777756" y2="301.777756"/>
  <ellipse cx="250.975517" cy="293.777756" fill="none" id="svg_5" rx="1" ry="3" stroke="#000000" stroke-dasharray="null" stroke-linecap="null" stroke-linejoin="null" stroke-width="5"/>
  <ellipse cx="403.975517" cy="297.777756" fill="none" id="svg_4" rx="1" ry="3" stroke="#000000" stroke-dasharray="null" stroke-linecap="null" stroke-linejoin="null" stroke-width="5"/>
  <line fill="none" id="svg_3" stroke="#00007f" stroke-dasharray="null" stroke-linecap="null" stroke-linejoin="null" stroke-width="5" transform="rotate(-10 446.475 201.778)" x1="400.975517" x2="491.975517" y1="214.777756" y2="188.777756"/>
  <line fill="none" id="svg_2" stroke="#00007f" stroke-dasharray="null" stroke-linecap="null" stroke-linejoin="null" stroke-width="5" transform="rotate(5 442.475 252.778)" x1="443.975517" x2="440.975517" y1="201.777756" y2="303.777756"/>
 </g>
</svg>